:SAMPLES-PER-SECOND 30
:FRAME-RANGE 1-2643
:FULLY-SPECIFIED
:DEGREES
826
root  -24.5337 36.9367 -24.4957 -1.62036 85.5495 -2.62537
RightUpLeg  -32.7777 -19.2874 9.83094
RightLeg  33.7208 -6.29191 -4.77384
RightFoot  -6.33661 0.260489 -6.92588
RightToes  7.56698e-010 0 -3.6325e-017
Spine  22.0406 -1.37048 8.5634
Spine1  3.7373 0.720642 -1.32149
HEad  -1.20317 -2.66055 -2.57876
LeftShoulder1  1.52745 -1.01157 -27.7237
LeftArm  21.5268 -21.1611 -43.4822
LeftForeArm  10.2569 -16.3834 -9.93123
LeftHand  -0.326573 -1.08068 5.99593
RightShoulder  8.98837 13.689 45.7131
RightArm  15.0508 5.25619 14.164
RightForeArm  4.89937 23.3684 4.78869
RightHand  -0.309948 4.36299 -3.9684
LeftUpLeg  -15.5794 6.46719 7.19242
LeftLeg  65.2681 0.167795 1.07179
LeftFoot  7.81329 1.85741 -11.2633
LeftToes  1.48244e-010 1.61973e-010 3.308e-011
827
root  -23.5204 37.0524 -24.0865 0.469482 84.0503 -0.83783
RightUpLeg  -31.537 -18.6206 9.93658
RightLeg  34.5588 -5.69612 -4.48327
RightFoot  -8.41868 0.114105 -6.6878
RightToes  7.56698e-010 0 -3.6325e-017
Spine  22.5015 -1.08145 8.47393
Spine1  3.90842 1.07396 -1.78007
HEad  -1.46018 -1.68778 -2.39744
LeftShoulder1  1.49963 -0.929207 -27.7236
LeftArm  13.8716 -20.441 -41.7631
LeftForeArm  14.8964 -11.2748 -13.416
LeftHand  -0.188088 -1.05945 3.50952
RightShoulder  9.84708 15.5423 45.1671
RightArm  13.1235 7.46413 13.8414
RightForeArm  5.55586 22.9013 4.79136
RightHand  -0.310474 4.36193 -3.97502
LeftUpLeg  -19.943 5.40398 6.9322
LeftLeg  68.4641 -0.203334 0.198916
LeftFoot  5.69791 1.52886 -10.4165
LeftToes  1.48244e-010 1.61973e-010 3.308e-011
828
root  -22.5273 37.2341 -23.6828 2.35498 82.6907 0.824951
RightUpLeg  -29.7896 -17.8862 9.81051
RightLeg  34.585 -5.34893 -4.23394
RightFoot  -10.0654 0.00536411 -6.56898
RightToes  7.56698e-010 0 -3.6325e-017
Spine  22.887 -0.767749 8.27738
Spine1  3.89855 1.38953 -2.35652
HEad  -1.70074 -0.981701 -2.42699
LeftShoulder1  1.48528 -0.90235 -27.6005
LeftArm  7.69087 -19.5169 -40.3191
LeftForeArm  18.0954 -5.83336 -15.8061
LeftHand  -0.0852285 -0.789309 1.69302
RightShoulder  10.5046 17.2063 44.2486
RightArm  11.0985 9.63096 13.6361
RightForeArm  6.05297 22.8232 4.77613
RightHand  -0.312197 4.4019 -4.04449
LeftUpLeg  -23.8185 3.8506 6.49313
LeftLeg  68.6768 -0.689878 -1.18817
LeftFoot  4.26977 1.37073 -10.1695
LeftToes  1.48244e-010 1.61973e-010 3.308e-011
829
root  -21.5251 37.4774 -23.2828 3.73193 81.5575 2.10016
RightUpLeg  -27.5331 -17.4804 9.54592
RightLeg  33.8962 -4.93466 -3.8357
RightFoot  -11.3965 -0.0799757 -6.40683
RightToes  7.56698e-010 0 -3.6325e-017
Spine  23.2648 -0.451984 8.0606
Spine1  3.50949 1.69555 -3.11438
HEad  -1.74124 -0.445988 -2.65334
LeftShoulder1  1.4996 -0.923499 -27.7678
LeftArm  5.80794 -18.3667 -39.0166
LeftForeArm  17.2626 -1.69222 -17.1565
LeftHand  0.00210122 -0.428049 0.00450968
RightShoulder  10.8789 18.5784 42.8813
RightArm  8.81905 11.0207 13.4853
RightForeArm  6.79589 23.9754 4.77594
RightHand  -0.31373 4.26487 -4.04805
LeftUpLeg  -26.9646 1.95233 6.01821
LeftLeg  66.148 -1.15029 -2.17234
LeftFoot  2.05582 1.1096 -9.53873
LeftToes  1.48244e-010 1.61973e-010 3.308e-011
830
root  -20.5266 37.7327 -22.8708 5.74231 80.5889 4.14203
RightUpLeg  -25.0133 -17.1999 9.05247
RightLeg  32.8725 -4.64871 -3.50057
RightFoot  -12.58 -0.152232 -6.22163
RightToes  7.56698e-010 0 -3.6325e-017
Spine  23.5274 -0.0254422 7.44094
Spine1  2.97027 2.00214 -3.78967
HEad  -1.51097 -0.257211 -2.69597
LeftShoulder1  1.50845 -0.923925 -27.9697
LeftArm  6.49598 -16.8549 -38.0826
LeftForeArm  14.7471 1.10778 -17.9837
LeftHand  0.0640421 -0.186729 -1.32317
RightShoulder  10.9645 19.3586 41.6468
RightArm  6.58608 12.598 13.3531
RightForeArm  8.28875 24.9613 4.91347
RightHand  -0.322731 4.38053 -4.11401
LeftUpLeg  -29.1424 -0.00405469 5.44862
LeftLeg  60.9357 -1.46991 -2.30208
LeftFoot  0.100836 0.938223 -9.35747
LeftToes  1.48244e-010 1.61973e-010 3.308e-011
831
root  -19.541 37.9904 -22.4454 7.90088 79.7794 6.40509
RightUpLeg  -22.3607 -16.7323 8.37245
RightLeg  31.7003 -4.54538 -3.28664
RightFoot  -13.5644 -0.20537 -5.85926
RightToes  7.56698e-010 0 -3.6325e-017
Spine  23.6225 0.471737 6.54564
Spine1  2.4365 2.32514 -4.41204
HEad  -1.36506 -0.145129 -2.68366
LeftShoulder1  1.5027 -0.880845 -28.1783
LeftArm  9.14506 -14.8992 -37.4219
LeftForeArm  11.0622 2.24207 -18.5843
LeftHand  0.100567 0.164572 -2.27593
RightShoulder  10.9632 19.9287 40.5304
RightArm  4.7036 13.5927 13.0622
RightForeArm  9.29284 26.7914 5.27051
RightHand  -0.337716 4.12887 -4.38943
LeftUpLeg  -30.2 -1.4973 4.77028
LeftLeg  53.0987 -1.66955 -1.92816
LeftFoot  -0.497995 0.858301 -9.00011
LeftToes  1.48244e-010 1.61973e-010 3.308e-011
832
root  -18.5888 38.2468 -22.0141 9.60486 79.1932 8.19696
RightUpLeg  -19.6391 -16.0025 7.77046
RightLeg  30.2144 -4.85109 -3.30215
RightFoot  -14.2731 -0.237661 -5.51605
RightToes  7.56698e-010 0 -3.6325e-017
Spine  23.5651 0.91533 5.61632
Spine1  2.01498 2.66632 -5.12247
HEad  -1.36631 -0.131788 -2.83719
LeftShoulder1  1.49802 -0.818223 -28.5752
LeftArm  11.9557 -12.576 -36.5796
LeftForeArm  6.76425 1.68721 -18.9757
LeftHand  0.135711 0.366605 -3.21528
RightShoulder  10.918 20.2928 39.6623
RightArm  3.0024 14.4088 12.8343
RightForeArm  10.0306 28.6797 5.66908
RightHand  -0.3257 4.00153 -4.29253
LeftUpLeg  -30.2299 -2.35922 3.96012
LeftLeg  43.0288 -2.1345 -1.74792
LeftFoot  -0.420528 0.878941 -9.15582
LeftToes  1.48244e-010 1.61973e-010 3.308e-011
833
root  -17.6649 38.4658 -21.593 10.3738 79.1022 8.98322
RightUpLeg  -17.0413 -15.4798 7.46863
RightLeg  28.6209 -5.32138 -3.38427
RightFoot  -14.9343 -0.273248 -5.4917
RightToes  7.56698e-010 0 -3.6325e-017
Spine  23.1224 1.12118 4.87331
Spine1  2.05239 2.89886 -5.83372
HEad  -1.31643 -0.11293 -2.88038
LeftShoulder1  1.46899 -0.721928 -28.6792
LeftArm  10.6894 -10.4802 -36.0188
LeftForeArm  5.1652 1.37113 -18.9175
LeftHand  0.182632 0.50868 -4.45645
RightShoulder  10.906 20.6203 39.0128
RightArm  1.30299 15.0996 12.9059
RightForeArm  10.2014 30.5957 6.12281
RightHand  -0.290435 3.96001 -3.87162
LeftUpLeg  -29.4832 -2.26784 2.8023
LeftLeg  31.5137 -3.69597 -2.10126
LeftFoot  -0.171655 0.895645 -9.13653
LeftToes  1.48244e-010 1.61973e-010 3.308e-011
834
root  -16.734 38.6128 -21.1782 10.4194 79.3025 9.16824
RightUpLeg  -14.5042 -15.2885 7.32568
RightLeg  27.428 -5.84216 -3.52105
RightFoot  -15.6152 -0.312258 -5.53711
RightToes  7.56698e-010 0 -3.6325e-017
Spine  22.3237 1.29208 4.26162
Spine1  2.62084 3.16564 -6.29097
HEad  -0.703968 -0.145353 -2.83467
LeftShoulder1  1.42637 -0.613625 -28.5543
LeftArm  8.27455 -9.12181 -35.9882
LeftForeArm  3.80393 0.0664366 -18.5513
LeftHand  0.207265 0.605735 -5.16528
RightShoulder  10.9691 20.8642 38.8221
RightArm  0.0853981 15.6572 12.7546
RightForeArm  10.0525 32.7581 6.67942
RightHand  -0.257625 3.83122 -3.50464
LeftUpLeg  -28.0821 0.306365 0.629806
LeftLeg  20.382 -7.12095 -2.59899
LeftFoot  -0.706087 1.1171 -11.9241
LeftToes  1.48244e-010 1.61973e-010 3.308e-011
835
root  -15.7798 38.6449 -20.7799 9.99158 79.9414 9.1152
RightUpLeg  -12.1959 -15.4881 7.2161
RightLeg  27.2772 -6.27637 -3.73878
RightFoot  -16.7327 -0.345286 -4.92905
RightToes  7.56698e-010 0 -3.6325e-017
Spine  21.3628 1.37462 3.92358
Spine1  3.40234 3.36846 -6.52347
HEad  0.148404 -0.0543778 -2.68844
LeftShoulder1  1.4297 -0.67528 -28.1132
LeftArm  4.06595 -9.97323 -36.8413
LeftForeArm  4.73972 -0.573406 -17.9589
LeftHand  0.246611 0.498797 -5.97782
RightShoulder  11.1143 21.1338 38.9089
RightArm  -1.27532 15.8254 12.7366
RightForeArm  10.1377 34.9832 7.27035
RightHand  -0.159697 3.65223 -2.30538
LeftUpLeg  -26.5951 6.13698 -2.4505
LeftLeg  11.9022 -10.3152 -3.57155
LeftFoot  1.0279 1.89331 -17.416
LeftToes  1.48244e-010 1.61973e-010 3.308e-011
836
root  -14.799 38.5346 -20.373 6.71021 81.0835 6.31976
RightUpLeg  -10.4263 -15.9872 7.64007
RightLeg  28.6018 -6.68773 -4.17346
RightFoot  -18.0595 -0.33111 -3.5602
RightToes  7.56698e-010 0 -3.6325e-017
Spine  20.3426 1.30049 4.0874
Spine1  3.93271 3.35846 -6.45341
HEad  1.3621 0.596798 -2.73566
LeftShoulder1  1.48097 -0.866253 -27.785
LeftArm  3.50016 -13.1838 -37.9845
LeftForeArm  3.79136 -3.19326 -17.2321
LeftHand  0.276119 0.134992 -6.16822
RightShoulder  11.3921 21.3974 39.513
RightArm  -2.33039 15.9173 12.6733
RightForeArm  9.92159 37.0623 7.874
RightHand  -0.0452399 3.56743 -0.838041
LeftUpLeg  -24.5671 6.84223 -2.06425
LeftLeg  6.36306 -3.74609 -5.50378
LeftFoot  4.8774 3.4266 -23.9442
LeftToes  1.48244e-010 1.61973e-010 3.308e-011
837
root  -13.8262 38.4102 -19.9413 3.55286 82.6574 3.95306
RightUpLeg  -8.61232 -17.3221 7.78536
RightLeg  30.4242 -6.58337 -4.40176
RightFoot  -19.0133 -0.191155 -0.932753
RightToes  7.56698e-010 0 -3.6325e-017
Spine  19.6808 1.03129 3.38441
Spine1  4.22327 2.94615 -5.99302
HEad  2.5078 2.25223 -2.87477
LeftShoulder1  1.52816 -1.09872 -27.0805
LeftArm  6.15784 -18.53 -39.6011
LeftForeArm  3.39584 -6.79604 -16.0891
LeftHand  0.290099 -0.492369 -5.70908
RightShoulder  11.7427 21.7774 40.1696
RightArm  -2.96467 16.3433 13.1536
RightForeArm  10.55 38.0914 8.1406
RightHand  0.111135 3.81383 1.13962
LeftUpLeg  -22.9686 7.19076 -2.9906
LeftLeg  6.16033 0.215504 -5.9008
LeftFoot  6.66896 2.76315 -17.5754
LeftToes  1.48244e-010 1.61973e-010 3.308e-011
838
root  -12.8932 38.3098 -19.4756 2.35413 83.931 3.68079
RightUpLeg  -7.65688 -19.1079 7.32837
RightLeg  34.0055 -5.42762 -4.17916
RightFoot  -18.9132 -0.030918 1.46753
RightToes  7.56698e-010 0 -3.6325e-017
Spine  19.418 0.887012 1.51172
Spine1  4.37252 2.49937 -5.42108
HEad  3.39654 4.42315 -2.93921
LeftShoulder1  1.59756 -1.47236 -25.947
LeftArm  9.91179 -25.5388 -41.113
LeftForeArm  2.74598 -10.8913 -14.1797
LeftHand  0.295138 -1.11916 -5.18059
RightShoulder  12.2442 22.4158 40.9031
RightArm  -2.58166 16.6856 13.8402
RightForeArm  11.4975 38.9561 8.34449
RightHand  0.296824 4.01703 3.39041
LeftUpLeg  -22.0614 6.8173 -4.25164
LeftLeg  8.47772 0.0524956 -5.01965
LeftFoot  7.62874 0.936298 -5.87992
LeftToes  1.48244e-010 1.61973e-010 3.308e-011
839
root  -12.0444 38.0972 -19.0333 12.3948 84.4893 14.8154
RightUpLeg  -9.41342 -20.5205 5.30229
RightLeg  42.5788 -3.08209 -3.32389
RightFoot  -16.7458 0.163686 5.87042
RightToes  7.56698e-010 0 -3.6325e-017
Spine  20.2511 0.952764 -1.46403
Spine1  3.66492 2.00917 -5.28292
HEad  3.5268 6.47841 -2.74953
LeftShoulder1  1.66004 -1.89378 -24.5436
LeftArm  11.4896 -34.3597 -42.1427
LeftForeArm  3.43261 -14.0121 -12.0574
LeftHand  0.261137 -1.41999 -4.3393
RightShoulder  12.7841 23.0597 41.7226
RightArm  -1.68541 17.0801 14.8129
RightForeArm  13.0823 39.9156 8.54269
RightHand  0.331481 3.94457 3.85214
LeftUpLeg  -22.3769 6.24582 -6.44315
LeftLeg  13.0458 -0.627713 -2.85193
LeftFoot  9.08491 -0.249442 1.07679
LeftToes  1.48244e-010 1.61973e-010 3.308e-011
